<mxfile host="app.diagrams.net" modified="2023-12-21T02:22:44.782Z" agent="Mozilla/5.0 (Windows NT 10.0; Win64; x64) AppleWebKit/537.36 (KHTML, like Gecko) Chrome/118.0.0.0 Safari/537.36 OPR/104.0.0.0" etag="xWT5SYiKt6913UfgfFWs" version="22.1.11" type="device">
  <diagram id="vCwnIYD7rUMOVge4N5CQ" name="Page-1">
    <mxGraphModel dx="6636" dy="4452" grid="1" gridSize="10" guides="1" tooltips="1" connect="1" arrows="1" fold="1" page="1" pageScale="1" pageWidth="827" pageHeight="1169" math="0" shadow="0">
      <root>
        <mxCell id="0" />
        <mxCell id="1" parent="0" />
        <mxCell id="L-GIQwBrBqri0OArbhi3-12" style="edgeStyle=orthogonalEdgeStyle;rounded=0;orthogonalLoop=1;jettySize=auto;html=1;entryX=0.5;entryY=0;entryDx=0;entryDy=0;endArrow=diamondThin;endFill=0;endSize=16;" edge="1" parent="1" source="L-GIQwBrBqri0OArbhi3-8" target="L-GIQwBrBqri0OArbhi3-3">
          <mxGeometry relative="1" as="geometry" />
        </mxCell>
        <mxCell id="L-GIQwBrBqri0OArbhi3-13" value="1" style="edgeLabel;html=1;align=center;verticalAlign=middle;resizable=0;points=[];fontSize=14;" vertex="1" connectable="0" parent="L-GIQwBrBqri0OArbhi3-12">
          <mxGeometry x="0.6683" y="4" relative="1" as="geometry">
            <mxPoint x="6" y="8" as="offset" />
          </mxGeometry>
        </mxCell>
        <mxCell id="L-GIQwBrBqri0OArbhi3-8" value="&lt;font style=&quot;font-size: 14px;&quot;&gt;« interface »&lt;br&gt;IService&lt;/font&gt;" style="swimlane;fontStyle=1;align=center;verticalAlign=top;childLayout=stackLayout;horizontal=1;startSize=50;horizontalStack=0;resizeParent=1;resizeParentMax=0;resizeLast=0;collapsible=1;marginBottom=0;whiteSpace=wrap;html=1;" vertex="1" parent="1">
          <mxGeometry x="1460" y="640" width="240" height="110" as="geometry" />
        </mxCell>
        <mxCell id="L-GIQwBrBqri0OArbhi3-9" value="&lt;font style=&quot;font-size: 15px;&quot;&gt;&lt;b style=&quot;font-size: 15px;&quot;&gt;Attributes&lt;/b&gt;&lt;/font&gt;" style="text;strokeColor=none;fillColor=none;align=center;verticalAlign=top;spacingLeft=4;spacingRight=4;overflow=hidden;rotatable=0;points=[[0,0.5],[1,0.5]];portConstraint=eastwest;whiteSpace=wrap;html=1;fontSize=15;" vertex="1" parent="L-GIQwBrBqri0OArbhi3-8">
          <mxGeometry y="50" width="240" height="26" as="geometry" />
        </mxCell>
        <mxCell id="L-GIQwBrBqri0OArbhi3-10" value="" style="line;strokeWidth=1;fillColor=none;align=left;verticalAlign=middle;spacingTop=-1;spacingLeft=3;spacingRight=3;rotatable=0;labelPosition=right;points=[];portConstraint=eastwest;strokeColor=inherit;" vertex="1" parent="L-GIQwBrBqri0OArbhi3-8">
          <mxGeometry y="76" width="240" height="8" as="geometry" />
        </mxCell>
        <mxCell id="L-GIQwBrBqri0OArbhi3-11" value="&lt;font style=&quot;font-size: 15px;&quot;&gt;&lt;b style=&quot;font-size: 15px;&quot;&gt;Operations&lt;/b&gt;&lt;/font&gt;" style="text;strokeColor=none;fillColor=none;align=center;verticalAlign=top;spacingLeft=4;spacingRight=4;overflow=hidden;rotatable=0;points=[[0,0.5],[1,0.5]];portConstraint=eastwest;whiteSpace=wrap;html=1;fontSize=15;" vertex="1" parent="L-GIQwBrBqri0OArbhi3-8">
          <mxGeometry y="84" width="240" height="26" as="geometry" />
        </mxCell>
        <mxCell id="L-GIQwBrBqri0OArbhi3-18" style="edgeStyle=orthogonalEdgeStyle;rounded=0;orthogonalLoop=1;jettySize=auto;html=1;entryX=0.5;entryY=0;entryDx=0;entryDy=0;dashed=1;endArrow=block;endFill=0;endSize=12;" edge="1" parent="1" source="L-GIQwBrBqri0OArbhi3-14" target="L-GIQwBrBqri0OArbhi3-8">
          <mxGeometry relative="1" as="geometry" />
        </mxCell>
        <mxCell id="L-GIQwBrBqri0OArbhi3-39" style="edgeStyle=orthogonalEdgeStyle;rounded=0;orthogonalLoop=1;jettySize=auto;html=1;entryX=1;entryY=0.5;entryDx=0;entryDy=0;endArrow=diamondThin;endFill=0;strokeWidth=1;endSize=24;" edge="1" parent="1" source="L-GIQwBrBqri0OArbhi3-14" target="L-GIQwBrBqri0OArbhi3-31">
          <mxGeometry relative="1" as="geometry" />
        </mxCell>
        <mxCell id="L-GIQwBrBqri0OArbhi3-40" value="0..1" style="edgeLabel;html=1;align=center;verticalAlign=middle;resizable=0;points=[];fontSize=14;" vertex="1" connectable="0" parent="L-GIQwBrBqri0OArbhi3-39">
          <mxGeometry x="0.8587" y="-3" relative="1" as="geometry">
            <mxPoint x="17" y="-13" as="offset" />
          </mxGeometry>
        </mxCell>
        <mxCell id="L-GIQwBrBqri0OArbhi3-42" value="1" style="edgeLabel;html=1;align=center;verticalAlign=middle;resizable=0;points=[];fontSize=14;" vertex="1" connectable="0" parent="L-GIQwBrBqri0OArbhi3-39">
          <mxGeometry x="-0.8939" y="1" relative="1" as="geometry">
            <mxPoint x="11" as="offset" />
          </mxGeometry>
        </mxCell>
        <mxCell id="L-GIQwBrBqri0OArbhi3-14" value="&lt;font style=&quot;font-size: 16px;&quot;&gt;ServiceBD&lt;/font&gt;" style="swimlane;fontStyle=1;align=center;verticalAlign=top;childLayout=stackLayout;horizontal=1;startSize=50;horizontalStack=0;resizeParent=1;resizeParentMax=0;resizeLast=0;collapsible=1;marginBottom=0;whiteSpace=wrap;html=1;" vertex="1" parent="1">
          <mxGeometry x="1460" y="330" width="240" height="188" as="geometry" />
        </mxCell>
        <mxCell id="L-GIQwBrBqri0OArbhi3-15" value="&lt;font style=&quot;font-size: 15px;&quot;&gt;&lt;b style=&quot;font-size: 15px;&quot;&gt;attributes&lt;/b&gt;&lt;/font&gt;" style="text;strokeColor=none;fillColor=none;align=center;verticalAlign=top;spacingLeft=4;spacingRight=4;overflow=hidden;rotatable=0;points=[[0,0.5],[1,0.5]];portConstraint=eastwest;whiteSpace=wrap;html=1;fontSize=15;" vertex="1" parent="L-GIQwBrBqri0OArbhi3-14">
          <mxGeometry y="50" width="240" height="26" as="geometry" />
        </mxCell>
        <mxCell id="L-GIQwBrBqri0OArbhi3-23" value="- connexion: Connection" style="text;strokeColor=none;fillColor=none;align=left;verticalAlign=top;spacingLeft=4;spacingRight=4;overflow=hidden;rotatable=0;points=[[0,0.5],[1,0.5]];portConstraint=eastwest;whiteSpace=wrap;html=1;fontSize=15;" vertex="1" parent="L-GIQwBrBqri0OArbhi3-14">
          <mxGeometry y="76" width="240" height="26" as="geometry" />
        </mxCell>
        <mxCell id="L-GIQwBrBqri0OArbhi3-16" value="" style="line;strokeWidth=1;fillColor=none;align=left;verticalAlign=middle;spacingTop=-1;spacingLeft=3;spacingRight=3;rotatable=0;labelPosition=right;points=[];portConstraint=eastwest;strokeColor=inherit;" vertex="1" parent="L-GIQwBrBqri0OArbhi3-14">
          <mxGeometry y="102" width="240" height="8" as="geometry" />
        </mxCell>
        <mxCell id="L-GIQwBrBqri0OArbhi3-17" value="&lt;font style=&quot;font-size: 15px;&quot;&gt;&lt;b style=&quot;font-size: 15px;&quot;&gt;Operations&lt;/b&gt;&lt;/font&gt;" style="text;strokeColor=none;fillColor=none;align=center;verticalAlign=top;spacingLeft=4;spacingRight=4;overflow=hidden;rotatable=0;points=[[0,0.5],[1,0.5]];portConstraint=eastwest;whiteSpace=wrap;html=1;fontSize=15;" vertex="1" parent="L-GIQwBrBqri0OArbhi3-14">
          <mxGeometry y="110" width="240" height="26" as="geometry" />
        </mxCell>
        <mxCell id="L-GIQwBrBqri0OArbhi3-25" value="+&amp;nbsp;ouvrirConnexion&lt;span style=&quot;background-color: initial; font-size: 15px;&quot;&gt;(): Connection&lt;/span&gt;" style="text;strokeColor=none;fillColor=none;align=left;verticalAlign=top;spacingLeft=4;spacingRight=4;overflow=hidden;rotatable=0;points=[[0,0.5],[1,0.5]];portConstraint=eastwest;whiteSpace=wrap;html=1;fontSize=15;" vertex="1" parent="L-GIQwBrBqri0OArbhi3-14">
          <mxGeometry y="136" width="240" height="26" as="geometry" />
        </mxCell>
        <mxCell id="L-GIQwBrBqri0OArbhi3-24" value="+&amp;nbsp;fermerConnexion&lt;span style=&quot;background-color: initial; font-size: 15px;&quot;&gt;()&lt;/span&gt;" style="text;strokeColor=none;fillColor=none;align=left;verticalAlign=top;spacingLeft=4;spacingRight=4;overflow=hidden;rotatable=0;points=[[0,0.5],[1,0.5]];portConstraint=eastwest;whiteSpace=wrap;html=1;fontSize=15;" vertex="1" parent="L-GIQwBrBqri0OArbhi3-14">
          <mxGeometry y="162" width="240" height="26" as="geometry" />
        </mxCell>
        <mxCell id="L-GIQwBrBqri0OArbhi3-36" value="" style="group" vertex="1" connectable="0" parent="1">
          <mxGeometry x="950" y="60" width="530" height="370" as="geometry" />
        </mxCell>
        <mxCell id="L-GIQwBrBqri0OArbhi3-29" value="&lt;font style=&quot;font-size: 16px;&quot;&gt;DAOAbstraite&lt;/font&gt;" style="swimlane;fontStyle=1;align=center;verticalAlign=top;childLayout=stackLayout;horizontal=1;startSize=50;horizontalStack=0;resizeParent=1;resizeParentMax=0;resizeLast=0;collapsible=1;marginBottom=0;whiteSpace=wrap;html=1;" vertex="1" parent="L-GIQwBrBqri0OArbhi3-36">
          <mxGeometry y="22.200000000000003" width="440.14" height="340" as="geometry" />
        </mxCell>
        <mxCell id="L-GIQwBrBqri0OArbhi3-30" value="&lt;font style=&quot;font-size: 14px;&quot;&gt;&lt;b&gt;attributes&lt;/b&gt;&lt;/font&gt;" style="text;strokeColor=none;fillColor=none;align=center;verticalAlign=top;spacingLeft=4;spacingRight=4;overflow=hidden;rotatable=0;points=[[0,0.5],[1,0.5]];portConstraint=eastwest;whiteSpace=wrap;html=1;" vertex="1" parent="L-GIQwBrBqri0OArbhi3-29">
          <mxGeometry y="50" width="440.14" height="30" as="geometry" />
        </mxCell>
        <mxCell id="L-GIQwBrBqri0OArbhi3-31" value="- serviceBD: ServiceBD" style="text;strokeColor=none;fillColor=none;align=left;verticalAlign=top;spacingLeft=4;spacingRight=4;overflow=hidden;rotatable=0;points=[[0,0.5],[1,0.5]];portConstraint=eastwest;whiteSpace=wrap;html=1;fontSize=15;" vertex="1" parent="L-GIQwBrBqri0OArbhi3-29">
          <mxGeometry y="80" width="440.14" height="30" as="geometry" />
        </mxCell>
        <mxCell id="L-GIQwBrBqri0OArbhi3-32" value="" style="line;strokeWidth=1;fillColor=none;align=left;verticalAlign=middle;spacingTop=-1;spacingLeft=3;spacingRight=3;rotatable=0;labelPosition=right;points=[];portConstraint=eastwest;strokeColor=inherit;" vertex="1" parent="L-GIQwBrBqri0OArbhi3-29">
          <mxGeometry y="110" width="440.14" height="14.8" as="geometry" />
        </mxCell>
        <mxCell id="L-GIQwBrBqri0OArbhi3-33" value="&lt;font style=&quot;font-size: 14px;&quot;&gt;&lt;b&gt;Operations&lt;/b&gt;&lt;/font&gt;" style="text;strokeColor=none;fillColor=none;align=center;verticalAlign=top;spacingLeft=4;spacingRight=4;overflow=hidden;rotatable=0;points=[[0,0.5],[1,0.5]];portConstraint=eastwest;whiteSpace=wrap;html=1;" vertex="1" parent="L-GIQwBrBqri0OArbhi3-29">
          <mxGeometry y="124.8" width="440.14" height="25.2" as="geometry" />
        </mxCell>
        <mxCell id="L-GIQwBrBqri0OArbhi3-34" value="+ « create » DAOAbstraite(serviceBD: ServiceBD)" style="text;strokeColor=none;fillColor=none;align=left;verticalAlign=top;spacingLeft=4;spacingRight=4;overflow=hidden;rotatable=0;points=[[0,0.5],[1,0.5]];portConstraint=eastwest;whiteSpace=wrap;html=1;fontSize=15;" vertex="1" parent="L-GIQwBrBqri0OArbhi3-29">
          <mxGeometry y="150" width="440.14" height="27.1" as="geometry" />
        </mxCell>
        <mxCell id="L-GIQwBrBqri0OArbhi3-43" value="+ enregistrer(entite: T)" style="text;strokeColor=none;fillColor=none;align=left;verticalAlign=top;spacingLeft=4;spacingRight=4;overflow=hidden;rotatable=0;points=[[0,0.5],[1,0.5]];portConstraint=eastwest;whiteSpace=wrap;html=1;fontSize=15;" vertex="1" parent="L-GIQwBrBqri0OArbhi3-29">
          <mxGeometry y="177.1" width="440.14" height="30" as="geometry" />
        </mxCell>
        <mxCell id="L-GIQwBrBqri0OArbhi3-35" value="+ enregistrerEntite(insertQuery: string, updateQuery: string, updateInt: Int, &lt;br style=&quot;font-size: 15px;&quot;&gt;entite: T, bindParams: (PreparedStatement) -&amp;gt; Unit)" style="text;strokeColor=none;fillColor=none;align=left;verticalAlign=top;spacingLeft=4;spacingRight=4;overflow=hidden;rotatable=0;points=[[0,0.5],[1,0.5]];portConstraint=eastwest;whiteSpace=wrap;html=1;fontSize=15;" vertex="1" parent="L-GIQwBrBqri0OArbhi3-29">
          <mxGeometry y="207.1" width="440.14" height="42.9" as="geometry" />
        </mxCell>
        <mxCell id="L-GIQwBrBqri0OArbhi3-54" value="+ chargerTout(): MutableList&amp;lt;T&amp;gt;" style="text;strokeColor=none;fillColor=none;align=left;verticalAlign=top;spacingLeft=4;spacingRight=4;overflow=hidden;rotatable=0;points=[[0,0.5],[1,0.5]];portConstraint=eastwest;whiteSpace=wrap;html=1;fontSize=15;" vertex="1" parent="L-GIQwBrBqri0OArbhi3-29">
          <mxGeometry y="250" width="440.14" height="30" as="geometry" />
        </mxCell>
        <mxCell id="L-GIQwBrBqri0OArbhi3-44" value="+ chargerParId(id: Int) : T?" style="text;strokeColor=none;fillColor=none;align=left;verticalAlign=top;spacingLeft=4;spacingRight=4;overflow=hidden;rotatable=0;points=[[0,0.5],[1,0.5]];portConstraint=eastwest;whiteSpace=wrap;html=1;fontSize=15;" vertex="1" parent="L-GIQwBrBqri0OArbhi3-29">
          <mxGeometry y="280" width="440.14" height="30" as="geometry" />
        </mxCell>
        <mxCell id="L-GIQwBrBqri0OArbhi3-55" value="+ supprimer(id: Int) : Boolean?" style="text;strokeColor=none;fillColor=none;align=left;verticalAlign=top;spacingLeft=4;spacingRight=4;overflow=hidden;rotatable=0;points=[[0,0.5],[1,0.5]];portConstraint=eastwest;whiteSpace=wrap;html=1;fontSize=15;" vertex="1" parent="L-GIQwBrBqri0OArbhi3-29">
          <mxGeometry y="310" width="440.14" height="30" as="geometry" />
        </mxCell>
        <mxCell id="L-GIQwBrBqri0OArbhi3-28" value="T: Entite" style="rounded=0;whiteSpace=wrap;html=1;dashed=1;fontSize=16;" vertex="1" parent="L-GIQwBrBqri0OArbhi3-36">
          <mxGeometry x="360" y="10" width="123.39" height="25.5" as="geometry" />
        </mxCell>
        <mxCell id="L-GIQwBrBqri0OArbhi3-37" value="" style="group;fontSize=16;" vertex="1" connectable="0" parent="1">
          <mxGeometry x="1190" y="770" width="290" height="158" as="geometry" />
        </mxCell>
        <mxCell id="L-GIQwBrBqri0OArbhi3-3" value="ConteneurService" style="swimlane;fontStyle=1;align=center;verticalAlign=top;childLayout=stackLayout;horizontal=1;startSize=26;horizontalStack=0;resizeParent=1;resizeParentMax=0;resizeLast=0;collapsible=1;marginBottom=0;whiteSpace=wrap;html=1;" vertex="1" parent="L-GIQwBrBqri0OArbhi3-37">
          <mxGeometry y="20" width="240" height="138" as="geometry" />
        </mxCell>
        <mxCell id="L-GIQwBrBqri0OArbhi3-19" value="&lt;font style=&quot;font-size: 15px;&quot;&gt;&lt;b style=&quot;font-size: 15px;&quot;&gt;Attributes&lt;/b&gt;&lt;/font&gt;" style="text;strokeColor=none;fillColor=none;align=center;verticalAlign=top;spacingLeft=4;spacingRight=4;overflow=hidden;rotatable=0;points=[[0,0.5],[1,0.5]];portConstraint=eastwest;whiteSpace=wrap;html=1;fontSize=15;" vertex="1" parent="L-GIQwBrBqri0OArbhi3-3">
          <mxGeometry y="26" width="240" height="26" as="geometry" />
        </mxCell>
        <mxCell id="L-GIQwBrBqri0OArbhi3-4" value="+ services : MutableList&amp;lt;Service&amp;gt;" style="text;strokeColor=none;fillColor=none;align=left;verticalAlign=top;spacingLeft=4;spacingRight=4;overflow=hidden;rotatable=0;points=[[0,0.5],[1,0.5]];portConstraint=eastwest;whiteSpace=wrap;html=1;fontSize=15;" vertex="1" parent="L-GIQwBrBqri0OArbhi3-3">
          <mxGeometry y="52" width="240" height="26" as="geometry" />
        </mxCell>
        <mxCell id="L-GIQwBrBqri0OArbhi3-5" value="" style="line;strokeWidth=1;fillColor=none;align=left;verticalAlign=middle;spacingTop=-1;spacingLeft=3;spacingRight=3;rotatable=0;labelPosition=right;points=[];portConstraint=eastwest;strokeColor=inherit;" vertex="1" parent="L-GIQwBrBqri0OArbhi3-3">
          <mxGeometry y="78" width="240" height="8" as="geometry" />
        </mxCell>
        <mxCell id="L-GIQwBrBqri0OArbhi3-21" value="&lt;font style=&quot;font-size: 15px;&quot;&gt;&lt;b style=&quot;font-size: 15px;&quot;&gt;Operations&lt;/b&gt;&lt;/font&gt;" style="text;strokeColor=none;fillColor=none;align=center;verticalAlign=top;spacingLeft=4;spacingRight=4;overflow=hidden;rotatable=0;points=[[0,0.5],[1,0.5]];portConstraint=eastwest;whiteSpace=wrap;html=1;fontSize=15;" vertex="1" parent="L-GIQwBrBqri0OArbhi3-3">
          <mxGeometry y="86" width="240" height="26" as="geometry" />
        </mxCell>
        <mxCell id="L-GIQwBrBqri0OArbhi3-6" value="+ getService(): IService" style="text;strokeColor=none;fillColor=none;align=left;verticalAlign=top;spacingLeft=4;spacingRight=4;overflow=hidden;rotatable=0;points=[[0,0.5],[1,0.5]];portConstraint=eastwest;whiteSpace=wrap;html=1;fontSize=15;" vertex="1" parent="L-GIQwBrBqri0OArbhi3-3">
          <mxGeometry y="112" width="240" height="26" as="geometry" />
        </mxCell>
        <mxCell id="L-GIQwBrBqri0OArbhi3-27" value="T: Service" style="rounded=0;whiteSpace=wrap;html=1;dashed=1;fontSize=16;" vertex="1" parent="L-GIQwBrBqri0OArbhi3-37">
          <mxGeometry x="190" width="100" height="30" as="geometry" />
        </mxCell>
        <mxCell id="L-GIQwBrBqri0OArbhi3-56" value="&lt;font style=&quot;font-size: 16px;&quot;&gt;ClientDAO&lt;/font&gt;" style="swimlane;fontStyle=1;align=center;verticalAlign=top;childLayout=stackLayout;horizontal=1;startSize=50;horizontalStack=0;resizeParent=1;resizeParentMax=0;resizeLast=0;collapsible=1;marginBottom=0;whiteSpace=wrap;html=1;" vertex="1" parent="1">
          <mxGeometry x="997.61" y="-250" width="344.93" height="136" as="geometry" />
        </mxCell>
        <mxCell id="L-GIQwBrBqri0OArbhi3-57" value="&lt;font style=&quot;font-size: 15px;&quot;&gt;&lt;b style=&quot;font-size: 15px;&quot;&gt;attributes&lt;/b&gt;&lt;/font&gt;" style="text;strokeColor=none;fillColor=none;align=center;verticalAlign=top;spacingLeft=4;spacingRight=4;overflow=hidden;rotatable=0;points=[[0,0.5],[1,0.5]];portConstraint=eastwest;whiteSpace=wrap;html=1;fontSize=15;" vertex="1" parent="L-GIQwBrBqri0OArbhi3-56">
          <mxGeometry y="50" width="344.93" height="26" as="geometry" />
        </mxCell>
        <mxCell id="L-GIQwBrBqri0OArbhi3-59" value="" style="line;strokeWidth=1;fillColor=none;align=left;verticalAlign=middle;spacingTop=-1;spacingLeft=3;spacingRight=3;rotatable=0;labelPosition=right;points=[];portConstraint=eastwest;strokeColor=inherit;" vertex="1" parent="L-GIQwBrBqri0OArbhi3-56">
          <mxGeometry y="76" width="344.93" height="8" as="geometry" />
        </mxCell>
        <mxCell id="L-GIQwBrBqri0OArbhi3-60" value="&lt;font style=&quot;font-size: 15px;&quot;&gt;&lt;b style=&quot;font-size: 15px;&quot;&gt;Operations&lt;/b&gt;&lt;/font&gt;" style="text;strokeColor=none;fillColor=none;align=center;verticalAlign=top;spacingLeft=4;spacingRight=4;overflow=hidden;rotatable=0;points=[[0,0.5],[1,0.5]];portConstraint=eastwest;whiteSpace=wrap;html=1;fontSize=15;" vertex="1" parent="L-GIQwBrBqri0OArbhi3-56">
          <mxGeometry y="84" width="344.93" height="26" as="geometry" />
        </mxCell>
        <mxCell id="L-GIQwBrBqri0OArbhi3-61" value="+ « create » ClientDAO(serviceBD: ServiceBD" style="text;strokeColor=none;fillColor=none;align=left;verticalAlign=top;spacingLeft=4;spacingRight=4;overflow=hidden;rotatable=0;points=[[0,0.5],[1,0.5]];portConstraint=eastwest;whiteSpace=wrap;html=1;fontSize=15;" vertex="1" parent="L-GIQwBrBqri0OArbhi3-56">
          <mxGeometry y="110" width="344.93" height="26" as="geometry" />
        </mxCell>
        <mxCell id="L-GIQwBrBqri0OArbhi3-65" value="« T -&amp;gt; Client »" style="edgeLabel;html=1;align=center;verticalAlign=middle;resizable=0;points=[];fontSize=16;" vertex="1" connectable="0" parent="1">
          <mxGeometry x="1250.0000000000002" y="-20" as="geometry">
            <mxPoint x="-19" y="15" as="offset" />
          </mxGeometry>
        </mxCell>
        <mxCell id="L-GIQwBrBqri0OArbhi3-68" value="« Bind »" style="edgeLabel;html=1;align=center;verticalAlign=middle;resizable=0;points=[];fontSize=16;" vertex="1" connectable="0" parent="1">
          <mxGeometry x="1250.0000000000002" y="-50" as="geometry">
            <mxPoint x="-19" y="15" as="offset" />
          </mxGeometry>
        </mxCell>
        <mxCell id="L-GIQwBrBqri0OArbhi3-97" style="edgeStyle=orthogonalEdgeStyle;rounded=0;orthogonalLoop=1;jettySize=auto;html=1;endArrow=none;endFill=0;endSize=16;" edge="1" parent="1" source="L-GIQwBrBqri0OArbhi3-69">
          <mxGeometry relative="1" as="geometry">
            <mxPoint x="1170" y="60" as="targetPoint" />
            <Array as="points">
              <mxPoint x="1610" y="-70" />
              <mxPoint x="1170" y="-70" />
            </Array>
          </mxGeometry>
        </mxCell>
        <mxCell id="L-GIQwBrBqri0OArbhi3-69" value="&lt;font style=&quot;font-size: 16px;&quot;&gt;DossierDAO&lt;/font&gt;" style="swimlane;fontStyle=1;align=center;verticalAlign=top;childLayout=stackLayout;horizontal=1;startSize=50;horizontalStack=0;resizeParent=1;resizeParentMax=0;resizeLast=0;collapsible=1;marginBottom=0;whiteSpace=wrap;html=1;" vertex="1" parent="1">
          <mxGeometry x="1420" y="-260" width="380" height="136" as="geometry" />
        </mxCell>
        <mxCell id="L-GIQwBrBqri0OArbhi3-70" value="&lt;font style=&quot;font-size: 15px;&quot;&gt;&lt;b style=&quot;font-size: 15px;&quot;&gt;attributes&lt;/b&gt;&lt;/font&gt;" style="text;strokeColor=none;fillColor=none;align=center;verticalAlign=top;spacingLeft=4;spacingRight=4;overflow=hidden;rotatable=0;points=[[0,0.5],[1,0.5]];portConstraint=eastwest;whiteSpace=wrap;html=1;fontSize=15;" vertex="1" parent="L-GIQwBrBqri0OArbhi3-69">
          <mxGeometry y="50" width="380" height="26" as="geometry" />
        </mxCell>
        <mxCell id="L-GIQwBrBqri0OArbhi3-71" value="" style="line;strokeWidth=1;fillColor=none;align=left;verticalAlign=middle;spacingTop=-1;spacingLeft=3;spacingRight=3;rotatable=0;labelPosition=right;points=[];portConstraint=eastwest;strokeColor=inherit;" vertex="1" parent="L-GIQwBrBqri0OArbhi3-69">
          <mxGeometry y="76" width="380" height="8" as="geometry" />
        </mxCell>
        <mxCell id="L-GIQwBrBqri0OArbhi3-72" value="&lt;font style=&quot;font-size: 15px;&quot;&gt;&lt;b style=&quot;font-size: 15px;&quot;&gt;Operations&lt;/b&gt;&lt;/font&gt;" style="text;strokeColor=none;fillColor=none;align=center;verticalAlign=top;spacingLeft=4;spacingRight=4;overflow=hidden;rotatable=0;points=[[0,0.5],[1,0.5]];portConstraint=eastwest;whiteSpace=wrap;html=1;fontSize=15;" vertex="1" parent="L-GIQwBrBqri0OArbhi3-69">
          <mxGeometry y="84" width="380" height="26" as="geometry" />
        </mxCell>
        <mxCell id="L-GIQwBrBqri0OArbhi3-73" value="+ « create » DossierDAO(serviceBD: ServiceBD)" style="text;strokeColor=none;fillColor=none;align=left;verticalAlign=top;spacingLeft=4;spacingRight=4;overflow=hidden;rotatable=0;points=[[0,0.5],[1,0.5]];portConstraint=eastwest;whiteSpace=wrap;html=1;fontSize=15;" vertex="1" parent="L-GIQwBrBqri0OArbhi3-69">
          <mxGeometry y="110" width="380" height="26" as="geometry" />
        </mxCell>
        <mxCell id="L-GIQwBrBqri0OArbhi3-98" style="edgeStyle=orthogonalEdgeStyle;rounded=0;orthogonalLoop=1;jettySize=auto;html=1;endArrow=none;endFill=0;endSize=16;" edge="1" parent="1" source="L-GIQwBrBqri0OArbhi3-74">
          <mxGeometry relative="1" as="geometry">
            <mxPoint x="1170" y="60" as="targetPoint" />
            <Array as="points">
              <mxPoint x="2065" y="20" />
              <mxPoint x="1170" y="20" />
            </Array>
          </mxGeometry>
        </mxCell>
        <mxCell id="L-GIQwBrBqri0OArbhi3-74" value="&lt;font style=&quot;font-size: 16px;&quot;&gt;EmployeDAO&lt;/font&gt;" style="swimlane;fontStyle=1;align=center;verticalAlign=top;childLayout=stackLayout;horizontal=1;startSize=50;horizontalStack=0;resizeParent=1;resizeParentMax=0;resizeLast=0;collapsible=1;marginBottom=0;whiteSpace=wrap;html=1;" vertex="1" parent="1">
          <mxGeometry x="1880" y="-260" width="370" height="136" as="geometry" />
        </mxCell>
        <mxCell id="L-GIQwBrBqri0OArbhi3-75" value="&lt;font style=&quot;font-size: 15px;&quot;&gt;&lt;b style=&quot;font-size: 15px;&quot;&gt;attributes&lt;/b&gt;&lt;/font&gt;" style="text;strokeColor=none;fillColor=none;align=center;verticalAlign=top;spacingLeft=4;spacingRight=4;overflow=hidden;rotatable=0;points=[[0,0.5],[1,0.5]];portConstraint=eastwest;whiteSpace=wrap;html=1;fontSize=15;" vertex="1" parent="L-GIQwBrBqri0OArbhi3-74">
          <mxGeometry y="50" width="370" height="26" as="geometry" />
        </mxCell>
        <mxCell id="L-GIQwBrBqri0OArbhi3-76" value="" style="line;strokeWidth=1;fillColor=none;align=left;verticalAlign=middle;spacingTop=-1;spacingLeft=3;spacingRight=3;rotatable=0;labelPosition=right;points=[];portConstraint=eastwest;strokeColor=inherit;" vertex="1" parent="L-GIQwBrBqri0OArbhi3-74">
          <mxGeometry y="76" width="370" height="8" as="geometry" />
        </mxCell>
        <mxCell id="L-GIQwBrBqri0OArbhi3-77" value="&lt;font style=&quot;font-size: 15px;&quot;&gt;&lt;b style=&quot;font-size: 15px;&quot;&gt;Operations&lt;/b&gt;&lt;/font&gt;" style="text;strokeColor=none;fillColor=none;align=center;verticalAlign=top;spacingLeft=4;spacingRight=4;overflow=hidden;rotatable=0;points=[[0,0.5],[1,0.5]];portConstraint=eastwest;whiteSpace=wrap;html=1;fontSize=15;" vertex="1" parent="L-GIQwBrBqri0OArbhi3-74">
          <mxGeometry y="84" width="370" height="26" as="geometry" />
        </mxCell>
        <mxCell id="L-GIQwBrBqri0OArbhi3-78" value="+ « create » EmployeDAO(serviceBD: ServiceBD)" style="text;strokeColor=none;fillColor=none;align=left;verticalAlign=top;spacingLeft=4;spacingRight=4;overflow=hidden;rotatable=0;points=[[0,0.5],[1,0.5]];portConstraint=eastwest;whiteSpace=wrap;html=1;fontSize=15;" vertex="1" parent="L-GIQwBrBqri0OArbhi3-74">
          <mxGeometry y="110" width="370" height="26" as="geometry" />
        </mxCell>
        <mxCell id="L-GIQwBrBqri0OArbhi3-99" style="edgeStyle=orthogonalEdgeStyle;rounded=0;orthogonalLoop=1;jettySize=auto;html=1;endArrow=none;endFill=0;endSize=16;" edge="1" parent="1" source="L-GIQwBrBqri0OArbhi3-79">
          <mxGeometry relative="1" as="geometry">
            <mxPoint x="1170" y="60" as="targetPoint" />
            <Array as="points">
              <mxPoint x="2471" y="50" />
              <mxPoint x="1170" y="50" />
            </Array>
          </mxGeometry>
        </mxCell>
        <mxCell id="L-GIQwBrBqri0OArbhi3-79" value="&lt;font style=&quot;font-size: 16px;&quot;&gt;RoleDAO&lt;/font&gt;" style="swimlane;fontStyle=1;align=center;verticalAlign=top;childLayout=stackLayout;horizontal=1;startSize=50;horizontalStack=0;resizeParent=1;resizeParentMax=0;resizeLast=0;collapsible=1;marginBottom=0;whiteSpace=wrap;html=1;" vertex="1" parent="1">
          <mxGeometry x="2301" y="-260" width="340" height="136" as="geometry" />
        </mxCell>
        <mxCell id="L-GIQwBrBqri0OArbhi3-80" value="&lt;font style=&quot;font-size: 15px;&quot;&gt;&lt;b style=&quot;font-size: 15px;&quot;&gt;attributes&lt;/b&gt;&lt;/font&gt;" style="text;strokeColor=none;fillColor=none;align=center;verticalAlign=top;spacingLeft=4;spacingRight=4;overflow=hidden;rotatable=0;points=[[0,0.5],[1,0.5]];portConstraint=eastwest;whiteSpace=wrap;html=1;fontSize=15;" vertex="1" parent="L-GIQwBrBqri0OArbhi3-79">
          <mxGeometry y="50" width="340" height="26" as="geometry" />
        </mxCell>
        <mxCell id="L-GIQwBrBqri0OArbhi3-81" value="" style="line;strokeWidth=1;fillColor=none;align=left;verticalAlign=middle;spacingTop=-1;spacingLeft=3;spacingRight=3;rotatable=0;labelPosition=right;points=[];portConstraint=eastwest;strokeColor=inherit;" vertex="1" parent="L-GIQwBrBqri0OArbhi3-79">
          <mxGeometry y="76" width="340" height="8" as="geometry" />
        </mxCell>
        <mxCell id="L-GIQwBrBqri0OArbhi3-82" value="&lt;font style=&quot;font-size: 15px;&quot;&gt;&lt;b style=&quot;font-size: 15px;&quot;&gt;Operations&lt;/b&gt;&lt;/font&gt;" style="text;strokeColor=none;fillColor=none;align=center;verticalAlign=top;spacingLeft=4;spacingRight=4;overflow=hidden;rotatable=0;points=[[0,0.5],[1,0.5]];portConstraint=eastwest;whiteSpace=wrap;html=1;fontSize=15;" vertex="1" parent="L-GIQwBrBqri0OArbhi3-79">
          <mxGeometry y="84" width="340" height="26" as="geometry" />
        </mxCell>
        <mxCell id="L-GIQwBrBqri0OArbhi3-83" value="+ « create » RoleDAO(serviceBD: ServiceBD)" style="text;strokeColor=none;fillColor=none;align=left;verticalAlign=top;spacingLeft=4;spacingRight=4;overflow=hidden;rotatable=0;points=[[0,0.5],[1,0.5]];portConstraint=eastwest;whiteSpace=wrap;html=1;fontSize=15;" vertex="1" parent="L-GIQwBrBqri0OArbhi3-79">
          <mxGeometry y="110" width="340" height="26" as="geometry" />
        </mxCell>
        <mxCell id="L-GIQwBrBqri0OArbhi3-95" style="edgeStyle=orthogonalEdgeStyle;rounded=0;orthogonalLoop=1;jettySize=auto;html=1;endArrow=none;endFill=0;endSize=16;" edge="1" parent="1" source="L-GIQwBrBqri0OArbhi3-84">
          <mxGeometry relative="1" as="geometry">
            <mxPoint x="1170" y="60" as="targetPoint" />
            <Array as="points">
              <mxPoint x="735" />
              <mxPoint x="1170" />
            </Array>
          </mxGeometry>
        </mxCell>
        <mxCell id="L-GIQwBrBqri0OArbhi3-84" value="&lt;font style=&quot;font-size: 16px;&quot;&gt;TacheDAO&lt;/font&gt;" style="swimlane;fontStyle=1;align=center;verticalAlign=top;childLayout=stackLayout;horizontal=1;startSize=50;horizontalStack=0;resizeParent=1;resizeParentMax=0;resizeLast=0;collapsible=1;marginBottom=0;whiteSpace=wrap;html=1;" vertex="1" parent="1">
          <mxGeometry x="560" y="-250" width="350" height="136" as="geometry" />
        </mxCell>
        <mxCell id="L-GIQwBrBqri0OArbhi3-85" value="&lt;font style=&quot;font-size: 15px;&quot;&gt;&lt;b style=&quot;font-size: 15px;&quot;&gt;attributes&lt;/b&gt;&lt;/font&gt;" style="text;strokeColor=none;fillColor=none;align=center;verticalAlign=top;spacingLeft=4;spacingRight=4;overflow=hidden;rotatable=0;points=[[0,0.5],[1,0.5]];portConstraint=eastwest;whiteSpace=wrap;html=1;fontSize=15;" vertex="1" parent="L-GIQwBrBqri0OArbhi3-84">
          <mxGeometry y="50" width="350" height="26" as="geometry" />
        </mxCell>
        <mxCell id="L-GIQwBrBqri0OArbhi3-86" value="" style="line;strokeWidth=1;fillColor=none;align=left;verticalAlign=middle;spacingTop=-1;spacingLeft=3;spacingRight=3;rotatable=0;labelPosition=right;points=[];portConstraint=eastwest;strokeColor=inherit;" vertex="1" parent="L-GIQwBrBqri0OArbhi3-84">
          <mxGeometry y="76" width="350" height="8" as="geometry" />
        </mxCell>
        <mxCell id="L-GIQwBrBqri0OArbhi3-87" value="&lt;font style=&quot;font-size: 15px;&quot;&gt;&lt;b style=&quot;font-size: 15px;&quot;&gt;Operations&lt;/b&gt;&lt;/font&gt;" style="text;strokeColor=none;fillColor=none;align=center;verticalAlign=top;spacingLeft=4;spacingRight=4;overflow=hidden;rotatable=0;points=[[0,0.5],[1,0.5]];portConstraint=eastwest;whiteSpace=wrap;html=1;fontSize=15;" vertex="1" parent="L-GIQwBrBqri0OArbhi3-84">
          <mxGeometry y="84" width="350" height="26" as="geometry" />
        </mxCell>
        <mxCell id="L-GIQwBrBqri0OArbhi3-88" value="+ « create » TacheDAO(serviceBD: ServiceBD)" style="text;strokeColor=none;fillColor=none;align=left;verticalAlign=top;spacingLeft=4;spacingRight=4;overflow=hidden;rotatable=0;points=[[0,0.5],[1,0.5]];portConstraint=eastwest;whiteSpace=wrap;html=1;fontSize=15;" vertex="1" parent="L-GIQwBrBqri0OArbhi3-84">
          <mxGeometry y="110" width="350" height="26" as="geometry" />
        </mxCell>
        <mxCell id="L-GIQwBrBqri0OArbhi3-89" value="&lt;font style=&quot;font-size: 16px;&quot;&gt;TacheDossierDAO&lt;/font&gt;" style="swimlane;fontStyle=1;align=center;verticalAlign=top;childLayout=stackLayout;horizontal=1;startSize=50;horizontalStack=0;resizeParent=1;resizeParentMax=0;resizeLast=0;collapsible=1;marginBottom=0;whiteSpace=wrap;html=1;" vertex="1" parent="1">
          <mxGeometry x="80" y="-250" width="410" height="136" as="geometry" />
        </mxCell>
        <mxCell id="L-GIQwBrBqri0OArbhi3-90" value="&lt;font style=&quot;font-size: 15px;&quot;&gt;&lt;b style=&quot;font-size: 15px;&quot;&gt;attributes&lt;/b&gt;&lt;/font&gt;" style="text;strokeColor=none;fillColor=none;align=center;verticalAlign=top;spacingLeft=4;spacingRight=4;overflow=hidden;rotatable=0;points=[[0,0.5],[1,0.5]];portConstraint=eastwest;whiteSpace=wrap;html=1;fontSize=15;" vertex="1" parent="L-GIQwBrBqri0OArbhi3-89">
          <mxGeometry y="50" width="410" height="26" as="geometry" />
        </mxCell>
        <mxCell id="L-GIQwBrBqri0OArbhi3-91" value="" style="line;strokeWidth=1;fillColor=none;align=left;verticalAlign=middle;spacingTop=-1;spacingLeft=3;spacingRight=3;rotatable=0;labelPosition=right;points=[];portConstraint=eastwest;strokeColor=inherit;" vertex="1" parent="L-GIQwBrBqri0OArbhi3-89">
          <mxGeometry y="76" width="410" height="8" as="geometry" />
        </mxCell>
        <mxCell id="L-GIQwBrBqri0OArbhi3-92" value="&lt;font style=&quot;font-size: 15px;&quot;&gt;&lt;b style=&quot;font-size: 15px;&quot;&gt;Operations&lt;/b&gt;&lt;/font&gt;" style="text;strokeColor=none;fillColor=none;align=center;verticalAlign=top;spacingLeft=4;spacingRight=4;overflow=hidden;rotatable=0;points=[[0,0.5],[1,0.5]];portConstraint=eastwest;whiteSpace=wrap;html=1;fontSize=15;" vertex="1" parent="L-GIQwBrBqri0OArbhi3-89">
          <mxGeometry y="84" width="410" height="26" as="geometry" />
        </mxCell>
        <mxCell id="L-GIQwBrBqri0OArbhi3-93" value="+ « create »&amp;nbsp;TacheDossierDAO(serviceBD: ServiceBD)" style="text;strokeColor=none;fillColor=none;align=left;verticalAlign=top;spacingLeft=4;spacingRight=4;overflow=hidden;rotatable=0;points=[[0,0.5],[1,0.5]];portConstraint=eastwest;whiteSpace=wrap;html=1;fontSize=15;" vertex="1" parent="L-GIQwBrBqri0OArbhi3-89">
          <mxGeometry y="110" width="410" height="26" as="geometry" />
        </mxCell>
        <mxCell id="L-GIQwBrBqri0OArbhi3-96" style="edgeStyle=orthogonalEdgeStyle;rounded=0;orthogonalLoop=1;jettySize=auto;html=1;endArrow=none;endFill=0;endSize=16;" edge="1" parent="1" source="L-GIQwBrBqri0OArbhi3-89">
          <mxGeometry relative="1" as="geometry">
            <mxPoint x="1170" y="60" as="targetPoint" />
            <Array as="points">
              <mxPoint x="285" y="40" />
              <mxPoint x="1170" y="40" />
            </Array>
          </mxGeometry>
        </mxCell>
        <mxCell id="L-GIQwBrBqri0OArbhi3-67" style="edgeStyle=orthogonalEdgeStyle;rounded=0;orthogonalLoop=1;jettySize=auto;html=1;entryX=0.5;entryY=0;entryDx=0;entryDy=0;fontSize=17;strokeWidth=1;endSize=16;endArrow=block;endFill=0;" edge="1" parent="1" source="L-GIQwBrBqri0OArbhi3-56" target="L-GIQwBrBqri0OArbhi3-29">
          <mxGeometry relative="1" as="geometry" />
        </mxCell>
        <mxCell id="L-GIQwBrBqri0OArbhi3-101" value="« T -&amp;gt; Dossier»" style="edgeLabel;html=1;align=center;verticalAlign=middle;resizable=0;points=[];fontSize=16;" vertex="1" connectable="0" parent="1">
          <mxGeometry x="1700.0000000000002" y="-84" as="geometry">
            <mxPoint x="-19" y="15" as="offset" />
          </mxGeometry>
        </mxCell>
        <mxCell id="L-GIQwBrBqri0OArbhi3-102" value="« Bind »" style="edgeLabel;html=1;align=center;verticalAlign=middle;resizable=0;points=[];fontSize=16;" vertex="1" connectable="0" parent="1">
          <mxGeometry x="1700.0000000000002" y="-114" as="geometry">
            <mxPoint x="-19" y="15" as="offset" />
          </mxGeometry>
        </mxCell>
        <mxCell id="L-GIQwBrBqri0OArbhi3-103" value="« T -&amp;gt; Employe»" style="edgeLabel;html=1;align=center;verticalAlign=middle;resizable=0;points=[];fontSize=16;" vertex="1" connectable="0" parent="1">
          <mxGeometry x="2150" y="-84" as="geometry">
            <mxPoint x="-19" y="15" as="offset" />
          </mxGeometry>
        </mxCell>
        <mxCell id="L-GIQwBrBqri0OArbhi3-104" value="« Bind »" style="edgeLabel;html=1;align=center;verticalAlign=middle;resizable=0;points=[];fontSize=16;" vertex="1" connectable="0" parent="1">
          <mxGeometry x="2150" y="-114" as="geometry">
            <mxPoint x="-19" y="15" as="offset" />
          </mxGeometry>
        </mxCell>
        <mxCell id="L-GIQwBrBqri0OArbhi3-105" value="« T -&amp;gt; Role»" style="edgeLabel;html=1;align=center;verticalAlign=middle;resizable=0;points=[];fontSize=16;" vertex="1" connectable="0" parent="1">
          <mxGeometry x="2590" y="-84" as="geometry">
            <mxPoint x="-19" y="15" as="offset" />
          </mxGeometry>
        </mxCell>
        <mxCell id="L-GIQwBrBqri0OArbhi3-106" value="« Bind »" style="edgeLabel;html=1;align=center;verticalAlign=middle;resizable=0;points=[];fontSize=16;" vertex="1" connectable="0" parent="1">
          <mxGeometry x="2590" y="-114" as="geometry">
            <mxPoint x="-19" y="15" as="offset" />
          </mxGeometry>
        </mxCell>
        <mxCell id="L-GIQwBrBqri0OArbhi3-107" value="« T -&amp;gt; Tache »" style="edgeLabel;html=1;align=center;verticalAlign=middle;resizable=0;points=[];fontSize=16;" vertex="1" connectable="0" parent="1">
          <mxGeometry x="827.0000000000002" y="-80" as="geometry">
            <mxPoint x="-19" y="15" as="offset" />
          </mxGeometry>
        </mxCell>
        <mxCell id="L-GIQwBrBqri0OArbhi3-108" value="« Bind »" style="edgeLabel;html=1;align=center;verticalAlign=middle;resizable=0;points=[];fontSize=16;" vertex="1" connectable="0" parent="1">
          <mxGeometry x="827.0000000000002" y="-110" as="geometry">
            <mxPoint x="-19" y="15" as="offset" />
          </mxGeometry>
        </mxCell>
        <mxCell id="L-GIQwBrBqri0OArbhi3-109" value="« T -&amp;gt; TacheDossier »" style="edgeLabel;html=1;align=center;verticalAlign=middle;resizable=0;points=[];fontSize=16;" vertex="1" connectable="0" parent="1">
          <mxGeometry x="410.0000000000002" y="-80" as="geometry">
            <mxPoint x="-19" y="15" as="offset" />
          </mxGeometry>
        </mxCell>
        <mxCell id="L-GIQwBrBqri0OArbhi3-110" value="« Bind »" style="edgeLabel;html=1;align=center;verticalAlign=middle;resizable=0;points=[];fontSize=16;" vertex="1" connectable="0" parent="1">
          <mxGeometry x="410.0000000000002" y="-110" as="geometry">
            <mxPoint x="-19" y="15" as="offset" />
          </mxGeometry>
        </mxCell>
        <mxCell id="L-GIQwBrBqri0OArbhi3-147" style="edgeStyle=orthogonalEdgeStyle;rounded=0;orthogonalLoop=1;jettySize=auto;html=1;entryX=0.5;entryY=0;entryDx=0;entryDy=0;fontSize=16;endSize=16;endArrow=block;endFill=0;" edge="1" parent="1" source="L-GIQwBrBqri0OArbhi3-114" target="L-GIQwBrBqri0OArbhi3-133">
          <mxGeometry relative="1" as="geometry" />
        </mxCell>
        <mxCell id="L-GIQwBrBqri0OArbhi3-233" style="edgeStyle=orthogonalEdgeStyle;rounded=0;orthogonalLoop=1;jettySize=auto;html=1;entryX=0.5;entryY=0;entryDx=0;entryDy=0;endArrow=block;endFill=0;endSize=16;" edge="1" parent="1" source="L-GIQwBrBqri0OArbhi3-114" target="L-GIQwBrBqri0OArbhi3-199">
          <mxGeometry relative="1" as="geometry" />
        </mxCell>
        <mxCell id="L-GIQwBrBqri0OArbhi3-234" style="edgeStyle=orthogonalEdgeStyle;rounded=0;orthogonalLoop=1;jettySize=auto;html=1;entryX=0;entryY=0.5;entryDx=0;entryDy=0;endArrow=block;endFill=0;endSize=16;" edge="1" parent="1" source="L-GIQwBrBqri0OArbhi3-114" target="L-GIQwBrBqri0OArbhi3-217">
          <mxGeometry relative="1" as="geometry">
            <Array as="points">
              <mxPoint x="-680" y="260" />
              <mxPoint x="-680" y="1301" />
            </Array>
          </mxGeometry>
        </mxCell>
        <mxCell id="L-GIQwBrBqri0OArbhi3-235" style="edgeStyle=orthogonalEdgeStyle;rounded=0;orthogonalLoop=1;jettySize=auto;html=1;entryX=0.5;entryY=0;entryDx=0;entryDy=0;exitX=1;exitY=0.5;exitDx=0;exitDy=0;endArrow=block;endFill=0;endSize=16;" edge="1" parent="1" source="L-GIQwBrBqri0OArbhi3-117" target="L-GIQwBrBqri0OArbhi3-170">
          <mxGeometry relative="1" as="geometry" />
        </mxCell>
        <mxCell id="L-GIQwBrBqri0OArbhi3-236" style="edgeStyle=orthogonalEdgeStyle;rounded=0;orthogonalLoop=1;jettySize=auto;html=1;entryX=1;entryY=0.5;entryDx=0;entryDy=0;endArrow=block;endFill=0;endSize=16;" edge="1" parent="1" source="L-GIQwBrBqri0OArbhi3-114" target="L-GIQwBrBqri0OArbhi3-213">
          <mxGeometry relative="1" as="geometry">
            <Array as="points">
              <mxPoint x="270" y="1181" />
            </Array>
          </mxGeometry>
        </mxCell>
        <mxCell id="L-GIQwBrBqri0OArbhi3-114" value="&lt;font style=&quot;font-size: 16px;&quot;&gt;Entite&lt;/font&gt;" style="swimlane;fontStyle=1;align=center;verticalAlign=top;childLayout=stackLayout;horizontal=1;startSize=50;horizontalStack=0;resizeParent=1;resizeParentMax=0;resizeLast=0;collapsible=1;marginBottom=0;whiteSpace=wrap;html=1;" vertex="1" parent="1">
          <mxGeometry x="237" y="190" width="210" height="140" as="geometry" />
        </mxCell>
        <mxCell id="L-GIQwBrBqri0OArbhi3-115" value="&lt;font style=&quot;font-size: 15px;&quot;&gt;&lt;b style=&quot;font-size: 15px;&quot;&gt;attributes&lt;/b&gt;&lt;/font&gt;" style="text;strokeColor=none;fillColor=none;align=center;verticalAlign=top;spacingLeft=4;spacingRight=4;overflow=hidden;rotatable=0;points=[[0,0.5],[1,0.5]];portConstraint=eastwest;whiteSpace=wrap;html=1;fontSize=15;" vertex="1" parent="L-GIQwBrBqri0OArbhi3-114">
          <mxGeometry y="50" width="210" height="26" as="geometry" />
        </mxCell>
        <mxCell id="L-GIQwBrBqri0OArbhi3-120" value="+ id: Int?" style="text;strokeColor=none;fillColor=none;align=left;verticalAlign=top;spacingLeft=4;spacingRight=4;overflow=hidden;rotatable=0;points=[[0,0.5],[1,0.5]];portConstraint=eastwest;whiteSpace=wrap;html=1;fontSize=15;" vertex="1" parent="L-GIQwBrBqri0OArbhi3-114">
          <mxGeometry y="76" width="210" height="30" as="geometry" />
        </mxCell>
        <mxCell id="L-GIQwBrBqri0OArbhi3-116" value="" style="line;strokeWidth=1;fillColor=none;align=left;verticalAlign=middle;spacingTop=-1;spacingLeft=3;spacingRight=3;rotatable=0;labelPosition=right;points=[];portConstraint=eastwest;strokeColor=inherit;" vertex="1" parent="L-GIQwBrBqri0OArbhi3-114">
          <mxGeometry y="106" width="210" height="8" as="geometry" />
        </mxCell>
        <mxCell id="L-GIQwBrBqri0OArbhi3-117" value="&lt;font style=&quot;font-size: 15px;&quot;&gt;&lt;b style=&quot;font-size: 15px;&quot;&gt;Operations&lt;/b&gt;&lt;/font&gt;" style="text;strokeColor=none;fillColor=none;align=center;verticalAlign=top;spacingLeft=4;spacingRight=4;overflow=hidden;rotatable=0;points=[[0,0.5],[1,0.5]];portConstraint=eastwest;whiteSpace=wrap;html=1;fontSize=15;" vertex="1" parent="L-GIQwBrBqri0OArbhi3-114">
          <mxGeometry y="114" width="210" height="26" as="geometry" />
        </mxCell>
        <mxCell id="L-GIQwBrBqri0OArbhi3-119" value="+ « create »&amp;nbsp;TacheDossierDAO(serviceBD: ServiceBD)" style="text;strokeColor=none;fillColor=none;align=left;verticalAlign=top;spacingLeft=4;spacingRight=4;overflow=hidden;rotatable=0;points=[[0,0.5],[1,0.5]];portConstraint=eastwest;whiteSpace=wrap;html=1;fontSize=15;" vertex="1" parent="1">
          <mxGeometry x="90" y="-130" width="410" height="26" as="geometry" />
        </mxCell>
        <mxCell id="L-GIQwBrBqri0OArbhi3-133" value="&lt;font style=&quot;font-size: 16px;&quot;&gt;Client&lt;/font&gt;" style="swimlane;fontStyle=1;align=center;verticalAlign=top;childLayout=stackLayout;horizontal=1;startSize=50;horizontalStack=0;resizeParent=1;resizeParentMax=0;resizeLast=0;collapsible=1;marginBottom=0;whiteSpace=wrap;html=1;" vertex="1" parent="1">
          <mxGeometry x="-180" y="397" width="330" height="406" as="geometry" />
        </mxCell>
        <mxCell id="L-GIQwBrBqri0OArbhi3-134" value="&lt;font style=&quot;font-size: 15px;&quot;&gt;&lt;b style=&quot;font-size: 15px;&quot;&gt;attributes&lt;/b&gt;&lt;/font&gt;" style="text;strokeColor=none;fillColor=none;align=center;verticalAlign=top;spacingLeft=4;spacingRight=4;overflow=hidden;rotatable=0;points=[[0,0.5],[1,0.5]];portConstraint=eastwest;whiteSpace=wrap;html=1;fontSize=15;" vertex="1" parent="L-GIQwBrBqri0OArbhi3-133">
          <mxGeometry y="50" width="330" height="26" as="geometry" />
        </mxCell>
        <mxCell id="L-GIQwBrBqri0OArbhi3-135" value="- adresse_civil: string" style="text;strokeColor=none;fillColor=none;align=left;verticalAlign=top;spacingLeft=4;spacingRight=4;overflow=hidden;rotatable=0;points=[[0,0.5],[1,0.5]];portConstraint=eastwest;whiteSpace=wrap;html=1;fontSize=15;" vertex="1" parent="L-GIQwBrBqri0OArbhi3-133">
          <mxGeometry y="76" width="330" height="30" as="geometry" />
        </mxCell>
        <mxCell id="L-GIQwBrBqri0OArbhi3-136" value="- code_postal: string" style="text;strokeColor=none;fillColor=none;align=left;verticalAlign=top;spacingLeft=4;spacingRight=4;overflow=hidden;rotatable=0;points=[[0,0.5],[1,0.5]];portConstraint=eastwest;whiteSpace=wrap;html=1;fontSize=15;" vertex="1" parent="L-GIQwBrBqri0OArbhi3-133">
          <mxGeometry y="106" width="330" height="30" as="geometry" />
        </mxCell>
        <mxCell id="L-GIQwBrBqri0OArbhi3-137" value="- ville: string" style="text;strokeColor=none;fillColor=none;align=left;verticalAlign=top;spacingLeft=4;spacingRight=4;overflow=hidden;rotatable=0;points=[[0,0.5],[1,0.5]];portConstraint=eastwest;whiteSpace=wrap;html=1;fontSize=15;" vertex="1" parent="L-GIQwBrBqri0OArbhi3-133">
          <mxGeometry y="136" width="330" height="30" as="geometry" />
        </mxCell>
        <mxCell id="L-GIQwBrBqri0OArbhi3-138" value="- province: string" style="text;strokeColor=none;fillColor=none;align=left;verticalAlign=top;spacingLeft=4;spacingRight=4;overflow=hidden;rotatable=0;points=[[0,0.5],[1,0.5]];portConstraint=eastwest;whiteSpace=wrap;html=1;fontSize=15;" vertex="1" parent="L-GIQwBrBqri0OArbhi3-133">
          <mxGeometry y="166" width="330" height="30" as="geometry" />
        </mxCell>
        <mxCell id="L-GIQwBrBqri0OArbhi3-139" value="- pays: string" style="text;strokeColor=none;fillColor=none;align=left;verticalAlign=top;spacingLeft=4;spacingRight=4;overflow=hidden;rotatable=0;points=[[0,0.5],[1,0.5]];portConstraint=eastwest;whiteSpace=wrap;html=1;fontSize=15;" vertex="1" parent="L-GIQwBrBqri0OArbhi3-133">
          <mxGeometry y="196" width="330" height="30" as="geometry" />
        </mxCell>
        <mxCell id="L-GIQwBrBqri0OArbhi3-140" value="- nom: string" style="text;strokeColor=none;fillColor=none;align=left;verticalAlign=top;spacingLeft=4;spacingRight=4;overflow=hidden;rotatable=0;points=[[0,0.5],[1,0.5]];portConstraint=eastwest;whiteSpace=wrap;html=1;fontSize=15;" vertex="1" parent="L-GIQwBrBqri0OArbhi3-133">
          <mxGeometry y="226" width="330" height="30" as="geometry" />
        </mxCell>
        <mxCell id="L-GIQwBrBqri0OArbhi3-141" value="- prenom: string" style="text;strokeColor=none;fillColor=none;align=left;verticalAlign=top;spacingLeft=4;spacingRight=4;overflow=hidden;rotatable=0;points=[[0,0.5],[1,0.5]];portConstraint=eastwest;whiteSpace=wrap;html=1;fontSize=15;" vertex="1" parent="L-GIQwBrBqri0OArbhi3-133">
          <mxGeometry y="256" width="330" height="30" as="geometry" />
        </mxCell>
        <mxCell id="L-GIQwBrBqri0OArbhi3-142" value="- courriel: string" style="text;strokeColor=none;fillColor=none;align=left;verticalAlign=top;spacingLeft=4;spacingRight=4;overflow=hidden;rotatable=0;points=[[0,0.5],[1,0.5]];portConstraint=eastwest;whiteSpace=wrap;html=1;fontSize=15;" vertex="1" parent="L-GIQwBrBqri0OArbhi3-133">
          <mxGeometry y="286" width="330" height="30" as="geometry" />
        </mxCell>
        <mxCell id="L-GIQwBrBqri0OArbhi3-143" value="- numero_telephone: string" style="text;strokeColor=none;fillColor=none;align=left;verticalAlign=top;spacingLeft=4;spacingRight=4;overflow=hidden;rotatable=0;points=[[0,0.5],[1,0.5]];portConstraint=eastwest;whiteSpace=wrap;html=1;fontSize=15;" vertex="1" parent="L-GIQwBrBqri0OArbhi3-133">
          <mxGeometry y="316" width="330" height="30" as="geometry" />
        </mxCell>
        <mxCell id="L-GIQwBrBqri0OArbhi3-144" value="" style="line;strokeWidth=1;fillColor=none;align=left;verticalAlign=middle;spacingTop=-1;spacingLeft=3;spacingRight=3;rotatable=0;labelPosition=right;points=[];portConstraint=eastwest;strokeColor=inherit;" vertex="1" parent="L-GIQwBrBqri0OArbhi3-133">
          <mxGeometry y="346" width="330" height="8" as="geometry" />
        </mxCell>
        <mxCell id="L-GIQwBrBqri0OArbhi3-145" value="&lt;font style=&quot;font-size: 15px;&quot;&gt;&lt;b style=&quot;font-size: 15px;&quot;&gt;Operations&lt;/b&gt;&lt;/font&gt;" style="text;strokeColor=none;fillColor=none;align=center;verticalAlign=top;spacingLeft=4;spacingRight=4;overflow=hidden;rotatable=0;points=[[0,0.5],[1,0.5]];portConstraint=eastwest;whiteSpace=wrap;html=1;fontSize=15;" vertex="1" parent="L-GIQwBrBqri0OArbhi3-133">
          <mxGeometry y="354" width="330" height="26" as="geometry" />
        </mxCell>
        <mxCell id="L-GIQwBrBqri0OArbhi3-146" value="+ « override » equals(other: any?) : boolean" style="text;strokeColor=none;fillColor=none;align=left;verticalAlign=top;spacingLeft=4;spacingRight=4;overflow=hidden;rotatable=0;points=[[0,0.5],[1,0.5]];portConstraint=eastwest;whiteSpace=wrap;html=1;fontSize=15;" vertex="1" parent="L-GIQwBrBqri0OArbhi3-133">
          <mxGeometry y="380" width="330" height="26" as="geometry" />
        </mxCell>
        <mxCell id="L-GIQwBrBqri0OArbhi3-227" style="edgeStyle=orthogonalEdgeStyle;rounded=0;orthogonalLoop=1;jettySize=auto;html=1;entryX=0;entryY=0.5;entryDx=0;entryDy=0;endArrow=diamondThin;endFill=0;endSize=16;" edge="1" parent="1" source="L-GIQwBrBqri0OArbhi3-148" target="L-GIQwBrBqri0OArbhi3-139">
          <mxGeometry relative="1" as="geometry" />
        </mxCell>
        <mxCell id="L-GIQwBrBqri0OArbhi3-228" style="edgeStyle=orthogonalEdgeStyle;rounded=0;orthogonalLoop=1;jettySize=auto;html=1;entryX=0.5;entryY=0;entryDx=0;entryDy=0;endArrow=block;endFill=0;startArrow=block;startFill=0;endSize=16;startSize=16;" edge="1" parent="1" source="L-GIQwBrBqri0OArbhi3-148" target="L-GIQwBrBqri0OArbhi3-114">
          <mxGeometry relative="1" as="geometry">
            <Array as="points">
              <mxPoint x="-610" y="998" />
              <mxPoint x="-610" y="170" />
              <mxPoint x="342" y="170" />
            </Array>
          </mxGeometry>
        </mxCell>
        <mxCell id="L-GIQwBrBqri0OArbhi3-148" value="&lt;font style=&quot;font-size: 16px;&quot;&gt;Dossier&lt;/font&gt;" style="swimlane;fontStyle=1;align=center;verticalAlign=top;childLayout=stackLayout;horizontal=1;startSize=50;horizontalStack=0;resizeParent=1;resizeParentMax=0;resizeLast=0;collapsible=1;marginBottom=0;whiteSpace=wrap;html=1;" vertex="1" parent="1">
          <mxGeometry x="-570" y="900" width="330" height="196" as="geometry" />
        </mxCell>
        <mxCell id="L-GIQwBrBqri0OArbhi3-149" value="&lt;font style=&quot;font-size: 15px;&quot;&gt;&lt;b style=&quot;font-size: 15px;&quot;&gt;attributes&lt;/b&gt;&lt;/font&gt;" style="text;strokeColor=none;fillColor=none;align=center;verticalAlign=top;spacingLeft=4;spacingRight=4;overflow=hidden;rotatable=0;points=[[0,0.5],[1,0.5]];portConstraint=eastwest;whiteSpace=wrap;html=1;fontSize=15;" vertex="1" parent="L-GIQwBrBqri0OArbhi3-148">
          <mxGeometry y="50" width="330" height="26" as="geometry" />
        </mxCell>
        <mxCell id="L-GIQwBrBqri0OArbhi3-151" value="- client: Client" style="text;strokeColor=none;fillColor=none;align=left;verticalAlign=top;spacingLeft=4;spacingRight=4;overflow=hidden;rotatable=0;points=[[0,0.5],[1,0.5]];portConstraint=eastwest;whiteSpace=wrap;html=1;fontSize=15;" vertex="1" parent="L-GIQwBrBqri0OArbhi3-148">
          <mxGeometry y="76" width="330" height="30" as="geometry" />
        </mxCell>
        <mxCell id="L-GIQwBrBqri0OArbhi3-152" value="- nom: string" style="text;strokeColor=none;fillColor=none;align=left;verticalAlign=top;spacingLeft=4;spacingRight=4;overflow=hidden;rotatable=0;points=[[0,0.5],[1,0.5]];portConstraint=eastwest;whiteSpace=wrap;html=1;fontSize=15;" vertex="1" parent="L-GIQwBrBqri0OArbhi3-148">
          <mxGeometry y="106" width="330" height="30" as="geometry" />
        </mxCell>
        <mxCell id="L-GIQwBrBqri0OArbhi3-159" value="" style="line;strokeWidth=1;fillColor=none;align=left;verticalAlign=middle;spacingTop=-1;spacingLeft=3;spacingRight=3;rotatable=0;labelPosition=right;points=[];portConstraint=eastwest;strokeColor=inherit;" vertex="1" parent="L-GIQwBrBqri0OArbhi3-148">
          <mxGeometry y="136" width="330" height="8" as="geometry" />
        </mxCell>
        <mxCell id="L-GIQwBrBqri0OArbhi3-160" value="&lt;font style=&quot;font-size: 15px;&quot;&gt;&lt;b style=&quot;font-size: 15px;&quot;&gt;Operations&lt;/b&gt;&lt;/font&gt;" style="text;strokeColor=none;fillColor=none;align=center;verticalAlign=top;spacingLeft=4;spacingRight=4;overflow=hidden;rotatable=0;points=[[0,0.5],[1,0.5]];portConstraint=eastwest;whiteSpace=wrap;html=1;fontSize=15;" vertex="1" parent="L-GIQwBrBqri0OArbhi3-148">
          <mxGeometry y="144" width="330" height="26" as="geometry" />
        </mxCell>
        <mxCell id="L-GIQwBrBqri0OArbhi3-161" value="+ « override » equals(other: any?) : boolean" style="text;strokeColor=none;fillColor=none;align=left;verticalAlign=top;spacingLeft=4;spacingRight=4;overflow=hidden;rotatable=0;points=[[0,0.5],[1,0.5]];portConstraint=eastwest;whiteSpace=wrap;html=1;fontSize=15;" vertex="1" parent="L-GIQwBrBqri0OArbhi3-148">
          <mxGeometry y="170" width="330" height="26" as="geometry" />
        </mxCell>
        <mxCell id="L-GIQwBrBqri0OArbhi3-196" style="edgeStyle=orthogonalEdgeStyle;rounded=0;orthogonalLoop=1;jettySize=auto;html=1;entryX=0;entryY=0.5;entryDx=0;entryDy=0;endArrow=diamondThin;endFill=0;endSize=16;" edge="1" parent="1" source="L-GIQwBrBqri0OArbhi3-170" target="L-GIQwBrBqri0OArbhi3-184">
          <mxGeometry relative="1" as="geometry" />
        </mxCell>
        <mxCell id="L-GIQwBrBqri0OArbhi3-170" value="&lt;font style=&quot;font-size: 16px;&quot;&gt;Employe&lt;/font&gt;" style="swimlane;fontStyle=1;align=center;verticalAlign=top;childLayout=stackLayout;horizontal=1;startSize=50;horizontalStack=0;resizeParent=1;resizeParentMax=0;resizeLast=0;collapsible=1;marginBottom=0;whiteSpace=wrap;html=1;" vertex="1" parent="1">
          <mxGeometry x="340" y="1090" width="330" height="312" as="geometry" />
        </mxCell>
        <mxCell id="L-GIQwBrBqri0OArbhi3-171" value="&lt;font style=&quot;font-size: 15px;&quot;&gt;&lt;b style=&quot;font-size: 15px;&quot;&gt;attributes&lt;/b&gt;&lt;/font&gt;" style="text;strokeColor=none;fillColor=none;align=center;verticalAlign=top;spacingLeft=4;spacingRight=4;overflow=hidden;rotatable=0;points=[[0,0.5],[1,0.5]];portConstraint=eastwest;whiteSpace=wrap;html=1;fontSize=15;" vertex="1" parent="L-GIQwBrBqri0OArbhi3-170">
          <mxGeometry y="50" width="330" height="26" as="geometry" />
        </mxCell>
        <mxCell id="L-GIQwBrBqri0OArbhi3-172" value="- nom: string" style="text;strokeColor=none;fillColor=none;align=left;verticalAlign=top;spacingLeft=4;spacingRight=4;overflow=hidden;rotatable=0;points=[[0,0.5],[1,0.5]];portConstraint=eastwest;whiteSpace=wrap;html=1;fontSize=15;" vertex="1" parent="L-GIQwBrBqri0OArbhi3-170">
          <mxGeometry y="76" width="330" height="30" as="geometry" />
        </mxCell>
        <mxCell id="L-GIQwBrBqri0OArbhi3-173" value="- prenom: string" style="text;strokeColor=none;fillColor=none;align=left;verticalAlign=top;spacingLeft=4;spacingRight=4;overflow=hidden;rotatable=0;points=[[0,0.5],[1,0.5]];portConstraint=eastwest;whiteSpace=wrap;html=1;fontSize=15;" vertex="1" parent="L-GIQwBrBqri0OArbhi3-170">
          <mxGeometry y="106" width="330" height="30" as="geometry" />
        </mxCell>
        <mxCell id="L-GIQwBrBqri0OArbhi3-178" value="- mdp: string" style="text;strokeColor=none;fillColor=none;align=left;verticalAlign=top;spacingLeft=4;spacingRight=4;overflow=hidden;rotatable=0;points=[[0,0.5],[1,0.5]];portConstraint=eastwest;whiteSpace=wrap;html=1;fontSize=15;" vertex="1" parent="L-GIQwBrBqri0OArbhi3-170">
          <mxGeometry y="136" width="330" height="30" as="geometry" />
        </mxCell>
        <mxCell id="L-GIQwBrBqri0OArbhi3-179" value="- role: Role" style="text;strokeColor=none;fillColor=none;align=left;verticalAlign=top;spacingLeft=4;spacingRight=4;overflow=hidden;rotatable=0;points=[[0,0.5],[1,0.5]];portConstraint=eastwest;whiteSpace=wrap;html=1;fontSize=15;" vertex="1" parent="L-GIQwBrBqri0OArbhi3-170">
          <mxGeometry y="166" width="330" height="30" as="geometry" />
        </mxCell>
        <mxCell id="L-GIQwBrBqri0OArbhi3-180" value="- courriel: string" style="text;strokeColor=none;fillColor=none;align=left;verticalAlign=top;spacingLeft=4;spacingRight=4;overflow=hidden;rotatable=0;points=[[0,0.5],[1,0.5]];portConstraint=eastwest;whiteSpace=wrap;html=1;fontSize=15;" vertex="1" parent="L-GIQwBrBqri0OArbhi3-170">
          <mxGeometry y="196" width="330" height="30" as="geometry" />
        </mxCell>
        <mxCell id="L-GIQwBrBqri0OArbhi3-174" value="" style="line;strokeWidth=1;fillColor=none;align=left;verticalAlign=middle;spacingTop=-1;spacingLeft=3;spacingRight=3;rotatable=0;labelPosition=right;points=[];portConstraint=eastwest;strokeColor=inherit;" vertex="1" parent="L-GIQwBrBqri0OArbhi3-170">
          <mxGeometry y="226" width="330" height="8" as="geometry" />
        </mxCell>
        <mxCell id="L-GIQwBrBqri0OArbhi3-175" value="&lt;font style=&quot;font-size: 15px;&quot;&gt;&lt;b style=&quot;font-size: 15px;&quot;&gt;Operations&lt;/b&gt;&lt;/font&gt;" style="text;strokeColor=none;fillColor=none;align=center;verticalAlign=top;spacingLeft=4;spacingRight=4;overflow=hidden;rotatable=0;points=[[0,0.5],[1,0.5]];portConstraint=eastwest;whiteSpace=wrap;html=1;fontSize=15;" vertex="1" parent="L-GIQwBrBqri0OArbhi3-170">
          <mxGeometry y="234" width="330" height="26" as="geometry" />
        </mxCell>
        <mxCell id="L-GIQwBrBqri0OArbhi3-181" value="+ « override » hashCode() : Int" style="text;strokeColor=none;fillColor=none;align=left;verticalAlign=top;spacingLeft=4;spacingRight=4;overflow=hidden;rotatable=0;points=[[0,0.5],[1,0.5]];portConstraint=eastwest;whiteSpace=wrap;html=1;fontSize=15;" vertex="1" parent="L-GIQwBrBqri0OArbhi3-170">
          <mxGeometry y="260" width="330" height="26" as="geometry" />
        </mxCell>
        <mxCell id="L-GIQwBrBqri0OArbhi3-176" value="+ « override » equals(other: any?) : boolean" style="text;strokeColor=none;fillColor=none;align=left;verticalAlign=top;spacingLeft=4;spacingRight=4;overflow=hidden;rotatable=0;points=[[0,0.5],[1,0.5]];portConstraint=eastwest;whiteSpace=wrap;html=1;fontSize=15;" vertex="1" parent="L-GIQwBrBqri0OArbhi3-170">
          <mxGeometry y="286" width="330" height="26" as="geometry" />
        </mxCell>
        <mxCell id="L-GIQwBrBqri0OArbhi3-182" value="&lt;font style=&quot;font-size: 16px;&quot;&gt;Role&lt;/font&gt;" style="swimlane;fontStyle=1;align=center;verticalAlign=top;childLayout=stackLayout;horizontal=1;startSize=50;horizontalStack=0;resizeParent=1;resizeParentMax=0;resizeLast=0;collapsible=1;marginBottom=0;whiteSpace=wrap;html=1;" vertex="1" parent="1">
          <mxGeometry x="750" y="1150" width="330" height="244" as="geometry" />
        </mxCell>
        <mxCell id="L-GIQwBrBqri0OArbhi3-183" value="&lt;font style=&quot;font-size: 15px;&quot;&gt;&lt;b style=&quot;font-size: 15px;&quot;&gt;attributes&lt;/b&gt;&lt;/font&gt;" style="text;strokeColor=none;fillColor=none;align=center;verticalAlign=top;spacingLeft=4;spacingRight=4;overflow=hidden;rotatable=0;points=[[0,0.5],[1,0.5]];portConstraint=eastwest;whiteSpace=wrap;html=1;fontSize=15;" vertex="1" parent="L-GIQwBrBqri0OArbhi3-182">
          <mxGeometry y="50" width="330" height="26" as="geometry" />
        </mxCell>
        <mxCell id="L-GIQwBrBqri0OArbhi3-184" value="- nom: string" style="text;strokeColor=none;fillColor=none;align=left;verticalAlign=top;spacingLeft=4;spacingRight=4;overflow=hidden;rotatable=0;points=[[0,0.5],[1,0.5]];portConstraint=eastwest;whiteSpace=wrap;html=1;fontSize=15;" vertex="1" parent="L-GIQwBrBqri0OArbhi3-182">
          <mxGeometry y="76" width="330" height="30" as="geometry" />
        </mxCell>
        <mxCell id="L-GIQwBrBqri0OArbhi3-189" value="" style="line;strokeWidth=1;fillColor=none;align=left;verticalAlign=middle;spacingTop=-1;spacingLeft=3;spacingRight=3;rotatable=0;labelPosition=right;points=[];portConstraint=eastwest;strokeColor=inherit;" vertex="1" parent="L-GIQwBrBqri0OArbhi3-182">
          <mxGeometry y="106" width="330" height="8" as="geometry" />
        </mxCell>
        <mxCell id="L-GIQwBrBqri0OArbhi3-190" value="&lt;font style=&quot;font-size: 15px;&quot;&gt;&lt;b style=&quot;font-size: 15px;&quot;&gt;Operations&lt;/b&gt;&lt;/font&gt;" style="text;strokeColor=none;fillColor=none;align=center;verticalAlign=top;spacingLeft=4;spacingRight=4;overflow=hidden;rotatable=0;points=[[0,0.5],[1,0.5]];portConstraint=eastwest;whiteSpace=wrap;html=1;fontSize=15;" vertex="1" parent="L-GIQwBrBqri0OArbhi3-182">
          <mxGeometry y="114" width="330" height="26" as="geometry" />
        </mxCell>
        <mxCell id="L-GIQwBrBqri0OArbhi3-194" value="+ estSuperviseur(): Boolean" style="text;strokeColor=none;fillColor=none;align=left;verticalAlign=top;spacingLeft=4;spacingRight=4;overflow=hidden;rotatable=0;points=[[0,0.5],[1,0.5]];portConstraint=eastwest;whiteSpace=wrap;html=1;fontSize=15;" vertex="1" parent="L-GIQwBrBqri0OArbhi3-182">
          <mxGeometry y="140" width="330" height="26" as="geometry" />
        </mxCell>
        <mxCell id="L-GIQwBrBqri0OArbhi3-191" value="+ « override » hashCode() : Int" style="text;strokeColor=none;fillColor=none;align=left;verticalAlign=top;spacingLeft=4;spacingRight=4;overflow=hidden;rotatable=0;points=[[0,0.5],[1,0.5]];portConstraint=eastwest;whiteSpace=wrap;html=1;fontSize=15;" vertex="1" parent="L-GIQwBrBqri0OArbhi3-182">
          <mxGeometry y="166" width="330" height="26" as="geometry" />
        </mxCell>
        <mxCell id="L-GIQwBrBqri0OArbhi3-192" value="+ « override » equals(other: any?) : boolean" style="text;strokeColor=none;fillColor=none;align=left;verticalAlign=top;spacingLeft=4;spacingRight=4;overflow=hidden;rotatable=0;points=[[0,0.5],[1,0.5]];portConstraint=eastwest;whiteSpace=wrap;html=1;fontSize=15;" vertex="1" parent="L-GIQwBrBqri0OArbhi3-182">
          <mxGeometry y="192" width="330" height="26" as="geometry" />
        </mxCell>
        <mxCell id="L-GIQwBrBqri0OArbhi3-193" value="+ toString() : string" style="text;strokeColor=none;fillColor=none;align=left;verticalAlign=top;spacingLeft=4;spacingRight=4;overflow=hidden;rotatable=0;points=[[0,0.5],[1,0.5]];portConstraint=eastwest;whiteSpace=wrap;html=1;fontSize=15;" vertex="1" parent="L-GIQwBrBqri0OArbhi3-182">
          <mxGeometry y="218" width="330" height="26" as="geometry" />
        </mxCell>
        <mxCell id="L-GIQwBrBqri0OArbhi3-199" value="&lt;font style=&quot;font-size: 16px;&quot;&gt;Tache&lt;/font&gt;" style="swimlane;fontStyle=1;align=center;verticalAlign=top;childLayout=stackLayout;horizontal=1;startSize=50;horizontalStack=0;resizeParent=1;resizeParentMax=0;resizeLast=0;collapsible=1;marginBottom=0;whiteSpace=wrap;html=1;" vertex="1" parent="1">
          <mxGeometry x="750" y="830" width="330" height="196" as="geometry" />
        </mxCell>
        <mxCell id="L-GIQwBrBqri0OArbhi3-200" value="&lt;font style=&quot;font-size: 15px;&quot;&gt;&lt;b style=&quot;font-size: 15px;&quot;&gt;attributes&lt;/b&gt;&lt;/font&gt;" style="text;strokeColor=none;fillColor=none;align=center;verticalAlign=top;spacingLeft=4;spacingRight=4;overflow=hidden;rotatable=0;points=[[0,0.5],[1,0.5]];portConstraint=eastwest;whiteSpace=wrap;html=1;fontSize=15;" vertex="1" parent="L-GIQwBrBqri0OArbhi3-199">
          <mxGeometry y="50" width="330" height="26" as="geometry" />
        </mxCell>
        <mxCell id="L-GIQwBrBqri0OArbhi3-201" value="- nom: string" style="text;strokeColor=none;fillColor=none;align=left;verticalAlign=top;spacingLeft=4;spacingRight=4;overflow=hidden;rotatable=0;points=[[0,0.5],[1,0.5]];portConstraint=eastwest;whiteSpace=wrap;html=1;fontSize=15;" vertex="1" parent="L-GIQwBrBqri0OArbhi3-199">
          <mxGeometry y="76" width="330" height="30" as="geometry" />
        </mxCell>
        <mxCell id="L-GIQwBrBqri0OArbhi3-202" value="- taux: float" style="text;strokeColor=none;fillColor=none;align=left;verticalAlign=top;spacingLeft=4;spacingRight=4;overflow=hidden;rotatable=0;points=[[0,0.5],[1,0.5]];portConstraint=eastwest;whiteSpace=wrap;html=1;fontSize=15;" vertex="1" parent="L-GIQwBrBqri0OArbhi3-199">
          <mxGeometry y="106" width="330" height="30" as="geometry" />
        </mxCell>
        <mxCell id="L-GIQwBrBqri0OArbhi3-206" value="" style="line;strokeWidth=1;fillColor=none;align=left;verticalAlign=middle;spacingTop=-1;spacingLeft=3;spacingRight=3;rotatable=0;labelPosition=right;points=[];portConstraint=eastwest;strokeColor=inherit;" vertex="1" parent="L-GIQwBrBqri0OArbhi3-199">
          <mxGeometry y="136" width="330" height="8" as="geometry" />
        </mxCell>
        <mxCell id="L-GIQwBrBqri0OArbhi3-207" value="&lt;font style=&quot;font-size: 15px;&quot;&gt;&lt;b style=&quot;font-size: 15px;&quot;&gt;Operations&lt;/b&gt;&lt;/font&gt;" style="text;strokeColor=none;fillColor=none;align=center;verticalAlign=top;spacingLeft=4;spacingRight=4;overflow=hidden;rotatable=0;points=[[0,0.5],[1,0.5]];portConstraint=eastwest;whiteSpace=wrap;html=1;fontSize=15;" vertex="1" parent="L-GIQwBrBqri0OArbhi3-199">
          <mxGeometry y="144" width="330" height="26" as="geometry" />
        </mxCell>
        <mxCell id="L-GIQwBrBqri0OArbhi3-209" value="+ « override » equals(other: any?) : boolean" style="text;strokeColor=none;fillColor=none;align=left;verticalAlign=top;spacingLeft=4;spacingRight=4;overflow=hidden;rotatable=0;points=[[0,0.5],[1,0.5]];portConstraint=eastwest;whiteSpace=wrap;html=1;fontSize=15;" vertex="1" parent="L-GIQwBrBqri0OArbhi3-199">
          <mxGeometry y="170" width="330" height="26" as="geometry" />
        </mxCell>
        <mxCell id="L-GIQwBrBqri0OArbhi3-222" style="edgeStyle=orthogonalEdgeStyle;rounded=0;orthogonalLoop=1;jettySize=auto;html=1;entryX=0;entryY=0.5;entryDx=0;entryDy=0;endSize=16;endArrow=diamondThin;endFill=0;" edge="1" parent="1">
          <mxGeometry relative="1" as="geometry">
            <mxPoint x="160" y="1319" as="sourcePoint" />
            <mxPoint x="340" y="1290" as="targetPoint" />
            <Array as="points">
              <mxPoint x="245" y="1319" />
              <mxPoint x="245" y="1290" />
            </Array>
          </mxGeometry>
        </mxCell>
        <mxCell id="L-GIQwBrBqri0OArbhi3-224" style="edgeStyle=orthogonalEdgeStyle;rounded=0;orthogonalLoop=1;jettySize=auto;html=1;entryX=1;entryY=0.5;entryDx=0;entryDy=0;endSize=16;endArrow=diamondThin;endFill=0;" edge="1" parent="1" source="L-GIQwBrBqri0OArbhi3-211" target="L-GIQwBrBqri0OArbhi3-152">
          <mxGeometry relative="1" as="geometry" />
        </mxCell>
        <mxCell id="L-GIQwBrBqri0OArbhi3-211" value="&lt;font style=&quot;font-size: 16px;&quot;&gt;TacheDossier&lt;/font&gt;" style="swimlane;fontStyle=1;align=center;verticalAlign=top;childLayout=stackLayout;horizontal=1;startSize=50;horizontalStack=0;resizeParent=1;resizeParentMax=0;resizeLast=0;collapsible=1;marginBottom=0;whiteSpace=wrap;html=1;" vertex="1" parent="1">
          <mxGeometry x="-170" y="1090" width="330" height="342" as="geometry" />
        </mxCell>
        <mxCell id="L-GIQwBrBqri0OArbhi3-212" value="&lt;font style=&quot;font-size: 15px;&quot;&gt;&lt;b style=&quot;font-size: 15px;&quot;&gt;attributes&lt;/b&gt;&lt;/font&gt;" style="text;strokeColor=none;fillColor=none;align=center;verticalAlign=top;spacingLeft=4;spacingRight=4;overflow=hidden;rotatable=0;points=[[0,0.5],[1,0.5]];portConstraint=eastwest;whiteSpace=wrap;html=1;fontSize=15;" vertex="1" parent="L-GIQwBrBqri0OArbhi3-211">
          <mxGeometry y="50" width="330" height="26" as="geometry" />
        </mxCell>
        <mxCell id="L-GIQwBrBqri0OArbhi3-213" value="- dossier: Dossier" style="text;strokeColor=none;fillColor=none;align=left;verticalAlign=top;spacingLeft=4;spacingRight=4;overflow=hidden;rotatable=0;points=[[0,0.5],[1,0.5]];portConstraint=eastwest;whiteSpace=wrap;html=1;fontSize=15;" vertex="1" parent="L-GIQwBrBqri0OArbhi3-211">
          <mxGeometry y="76" width="330" height="30" as="geometry" />
        </mxCell>
        <mxCell id="L-GIQwBrBqri0OArbhi3-214" value="- employe: Employe" style="text;strokeColor=none;fillColor=none;align=left;verticalAlign=top;spacingLeft=4;spacingRight=4;overflow=hidden;rotatable=0;points=[[0,0.5],[1,0.5]];portConstraint=eastwest;whiteSpace=wrap;html=1;fontSize=15;" vertex="1" parent="L-GIQwBrBqri0OArbhi3-211">
          <mxGeometry y="106" width="330" height="30" as="geometry" />
        </mxCell>
        <mxCell id="L-GIQwBrBqri0OArbhi3-215" value="- nom_tache: string" style="text;strokeColor=none;fillColor=none;align=left;verticalAlign=top;spacingLeft=4;spacingRight=4;overflow=hidden;rotatable=0;points=[[0,0.5],[1,0.5]];portConstraint=eastwest;whiteSpace=wrap;html=1;fontSize=15;" vertex="1" parent="L-GIQwBrBqri0OArbhi3-211">
          <mxGeometry y="136" width="330" height="30" as="geometry" />
        </mxCell>
        <mxCell id="L-GIQwBrBqri0OArbhi3-216" value="- debut: Timestamp" style="text;strokeColor=none;fillColor=none;align=left;verticalAlign=top;spacingLeft=4;spacingRight=4;overflow=hidden;rotatable=0;points=[[0,0.5],[1,0.5]];portConstraint=eastwest;whiteSpace=wrap;html=1;fontSize=15;" vertex="1" parent="L-GIQwBrBqri0OArbhi3-211">
          <mxGeometry y="166" width="330" height="30" as="geometry" />
        </mxCell>
        <mxCell id="L-GIQwBrBqri0OArbhi3-217" value="- duree: Time" style="text;strokeColor=none;fillColor=none;align=left;verticalAlign=top;spacingLeft=4;spacingRight=4;overflow=hidden;rotatable=0;points=[[0,0.5],[1,0.5]];portConstraint=eastwest;whiteSpace=wrap;html=1;fontSize=15;" vertex="1" parent="L-GIQwBrBqri0OArbhi3-211">
          <mxGeometry y="196" width="330" height="30" as="geometry" />
        </mxCell>
        <mxCell id="L-GIQwBrBqri0OArbhi3-226" value="- montant: Float" style="text;strokeColor=none;fillColor=none;align=left;verticalAlign=top;spacingLeft=4;spacingRight=4;overflow=hidden;rotatable=0;points=[[0,0.5],[1,0.5]];portConstraint=eastwest;whiteSpace=wrap;html=1;fontSize=15;" vertex="1" parent="L-GIQwBrBqri0OArbhi3-211">
          <mxGeometry y="226" width="330" height="30" as="geometry" />
        </mxCell>
        <mxCell id="L-GIQwBrBqri0OArbhi3-218" value="" style="line;strokeWidth=1;fillColor=none;align=left;verticalAlign=middle;spacingTop=-1;spacingLeft=3;spacingRight=3;rotatable=0;labelPosition=right;points=[];portConstraint=eastwest;strokeColor=inherit;" vertex="1" parent="L-GIQwBrBqri0OArbhi3-211">
          <mxGeometry y="256" width="330" height="8" as="geometry" />
        </mxCell>
        <mxCell id="L-GIQwBrBqri0OArbhi3-219" value="&lt;font style=&quot;font-size: 15px;&quot;&gt;&lt;b style=&quot;font-size: 15px;&quot;&gt;Operations&lt;/b&gt;&lt;/font&gt;" style="text;strokeColor=none;fillColor=none;align=center;verticalAlign=top;spacingLeft=4;spacingRight=4;overflow=hidden;rotatable=0;points=[[0,0.5],[1,0.5]];portConstraint=eastwest;whiteSpace=wrap;html=1;fontSize=15;" vertex="1" parent="L-GIQwBrBqri0OArbhi3-211">
          <mxGeometry y="264" width="330" height="26" as="geometry" />
        </mxCell>
        <mxCell id="L-GIQwBrBqri0OArbhi3-220" value="+ « override » hashCode() : Int" style="text;strokeColor=none;fillColor=none;align=left;verticalAlign=top;spacingLeft=4;spacingRight=4;overflow=hidden;rotatable=0;points=[[0,0.5],[1,0.5]];portConstraint=eastwest;whiteSpace=wrap;html=1;fontSize=15;" vertex="1" parent="L-GIQwBrBqri0OArbhi3-211">
          <mxGeometry y="290" width="330" height="26" as="geometry" />
        </mxCell>
        <mxCell id="L-GIQwBrBqri0OArbhi3-221" value="+ « override » equals(other: any?) : boolean" style="text;strokeColor=none;fillColor=none;align=left;verticalAlign=top;spacingLeft=4;spacingRight=4;overflow=hidden;rotatable=0;points=[[0,0.5],[1,0.5]];portConstraint=eastwest;whiteSpace=wrap;html=1;fontSize=15;" vertex="1" parent="L-GIQwBrBqri0OArbhi3-211">
          <mxGeometry y="316" width="330" height="26" as="geometry" />
        </mxCell>
        <mxCell id="L-GIQwBrBqri0OArbhi3-237" style="edgeStyle=orthogonalEdgeStyle;rounded=0;orthogonalLoop=1;jettySize=auto;html=1;entryX=0.473;entryY=0.012;entryDx=0;entryDy=0;entryPerimeter=0;endArrow=block;endFill=0;endSize=16;" edge="1" parent="1" source="L-GIQwBrBqri0OArbhi3-114" target="L-GIQwBrBqri0OArbhi3-182">
          <mxGeometry relative="1" as="geometry">
            <Array as="points">
              <mxPoint x="710" y="260" />
              <mxPoint x="710" y="1120" />
              <mxPoint x="906" y="1120" />
            </Array>
          </mxGeometry>
        </mxCell>
      </root>
    </mxGraphModel>
  </diagram>
</mxfile>
